<svg width="146" height="160" viewBox="0 0 146 160" fill="none" xmlns="http://www.w3.org/2000/svg">
<g id="tr1 1" clip-path="url(#clip0_363_10851)">
<path id="Vector" d="M139.065 13.8904H6.93504C3.10343 13.8904 0 10.7824 0 6.9452C0 3.10798 3.10343 0 6.93504 0H139.065C142.897 0 146 3.10798 146 6.9452C146 10.7824 142.897 13.8904 139.065 13.8904Z" fill="#0086FF"/>
<path id="Vector_2" d="M138.684 35.6982H90.5024C86.6708 35.6982 83.5674 38.8062 83.5674 42.6434V153.037C83.5674 156.875 86.6708 159.983 90.5024 159.983C94.334 159.983 97.4375 156.875 97.4375 153.037V49.5886H138.684C142.515 49.5886 145.619 46.4807 145.619 42.6434C145.619 38.8062 142.515 35.6982 138.684 35.6982Z" fill="#0086FF"/>
<path id="Vector_3" d="M6.93504 35.6982H55.1163C58.9479 35.6982 62.0513 38.8062 62.0513 42.6434V153.037C62.0513 156.875 58.9479 159.983 55.1163 159.983C51.2846 159.983 48.1812 156.875 48.1812 153.037V49.5886H6.93504C3.10343 49.5886 0 46.4807 0 42.6434C0 38.8062 3.10343 35.6982 6.93504 35.6982Z" fill="#0086FF"/>
</g>
<defs>
<clipPath id="clip0_363_10851">
<rect width="146" height="160" fill="white"/>
</clipPath>
</defs>
</svg>
